<svg xmlns="http://www.w3.org/2000/svg" version="1.1" xmlns:xlink="http://www.w3.org/1999/xlink" xmlns:svgjs="http://svgjs.dev/svgjs" width="1200" height="1000"><svg id="SvgjsSvg1001" xmlns="http://www.w3.org/2000/svg" version="1.1" viewBox="0 0 1200 1000">
  <!-- Generator: Adobe Illustrator 29.3.1, SVG Export Plug-In . SVG Version: 2.1.0 Build 151)  -->
  <g style="isolation: isolate;">
    <polygon points="586.1 703.3 602.3 691.7 603.5 691.8 587.2 703.4 586.1 703.3" style="fill: #231c5d;"></polygon>
    <polygon points="587.2 701.3 603.5 689.7 602.3 691.7 586.1 703.3 587.2 701.3" style="fill: #1b1649;"></polygon>
    <polygon points="516.5 566.2 532.8 554.6 603.5 689.7 587.2 701.3 516.5 566.2" style="fill: #2d2377;"></polygon>
    <polygon points="445.7 432.4 461.9 420.7 532.8 554.6 516.5 566.2 445.7 432.4" style="fill: #2d2477;"></polygon>
    <polygon points="444.7 430.5 461 418.9 461.9 420.7 445.7 432.4 444.7 430.5" style="fill: #2d2477;"></polygon>
    <polygon points="444 429.1 444.7 430.5 445.7 432.4 516.5 566.2 587.2 701.3 586.1 703.3 587.2 703.4 443.5 688.1 298.6 671.8 371 550.3 444 429.1" style="fill: #231c5d;"></polygon>
    <polygon points="444 429.1 460.2 417.5 461 418.9 444.7 430.5 444 429.1" style="fill: #2d2477;"></polygon>
    <polygon points="803.9 597.6 820.2 586 892.1 723.4 875.8 735 803.9 597.6" style="fill: #d44719;"></polygon>
    <polygon points="733.1 463.8 749.4 452.2 820.2 586 803.9 597.6 733.1 463.8" style="fill: #d44719;"></polygon>
    <polygon points="731.4 460.6 747.7 449 746 451.8 729.7 463.4 731.4 460.6" style="fill: #690c13;"></polygon>
    <polygon points="731.4 460.6 733.1 463.8 803.9 597.6 875.8 735 730.9 719.5 587.2 703.4 586.1 703.3 587.2 701.3 658.4 581.7 729.7 463.4 731.4 460.6" style="fill: #a63713;"></polygon>
    <polygon points="731.4 460.6 747.7 449 749.4 452.2 733.1 463.8 731.4 460.6" style="fill: #d44719;"></polygon>
    <polygon points="661.6 326.5 677.9 314.9 749.8 452.2 733.5 463.9 661.6 326.5" style="fill: #ad141f;"></polygon>
    <polygon points="589.1 189.4 605.4 177.8 677.9 314.9 661.6 326.5 589.1 189.4" style="fill: #ad141f;"></polygon>
    <polygon points="589.1 189.4 661.6 326.5 733.5 463.9 731.4 460.6 729.7 463.4 588.6 448.4 445.7 432.4 444.7 430.5 516.1 310.6 589.1 189.4" style="fill: #871018;"></polygon>
  </g>
  <metadata>
    <sfw xmlns="http://ns.adobe.com/SaveForWeb/1.0/">
      <slices></slices>
      <slicesourcebounds x="298.6" y="-734.98" width="593.49" height="557.15" bottomleftorigin="true"></slicesourcebounds>
    </sfw>
  </metadata>
</svg><style>@media (prefers-color-scheme: light) { :root { filter: none; } }
@media (prefers-color-scheme: dark) { :root { filter: none; } }
</style></svg>